{"title":"Diablo.2016.WEBRip.480p.x264.AAC-VYTO [P2PDL]","uid":13175419,"size":321327262,"categoryP":"video","categoryS":"movies","magnet":"?xt=urn:btih:2f8f7a20d26564ad7a3ba7e50b8e163cb1bad27b&amp;dn=Diablo.2016.WEBRip.480p.x264.AAC-VYTO+%5BP2PDL%5D&amp;tr=udp%3A%2F%2Ftracker.leechers-paradise.org%3A6969&amp;tr=udp%3A%2F%2Fzer0day.ch%3A1337&amp;tr=udp%3A%2F%2Fopen.demonii.com%3A1337&amp;tr=udp%3A%2F%2Ftracker.coppersurfer.tk%3A6969&amp;tr=udp%3A%2F%2Fexodus.desync.com%3A6969","seeders":1,"leechers":0,"uploader":"VYTOP2PDL","files":7,"time":1452281347,"description":"____    ____ ____    ____ .___________.  ______   \r\n     /   /      /   / |           | /  __    \r\n    /   /      /   /  `---|  |----`|  |  |  | \r\n        /     _    _/       |  |     |  |  |  | \r\n       /        |  |         |  |     |  `--'  | \r\n    __/         |__|         |__|      ______/  \r\n                                                  \r\nPresenting Small Encodes with quality for years!\r\n                                                                                                   \r\n                                                                                                   \r\n\r\nDiablo.2016.WEBRip.480p.x264.AAC-VYTO\r\n\r\n\r\nGenre: Action, Adventure, Thriller \nhttp://www.imdb.com/title/tt4076760/\r\n\r\n\r\nFormat                                   : MPEG-4\r\nFile size                                : 301 MiB\r\nDuration                                 : 1h 23mn\r\nOverall bit rate                         : 505 Kbps\r\n\r\nVideo\r\nFormat                                   : AVC\r\nBit rate                                 : 471 Kbps\r\nWidth                                    : 720 pixels\r\nHeight                                   : 304 pixels\r\nDisplay aspect ratio                     : 2.35:1\r\nFrame rate mode                          : Constant\r\nFrame rate                               : 23.976 fps\r\nBit depth                                : 8 bits\r\nStream size                              : 280 MiB (93%)\r\nWriting library                          : x264\r\n\r\nAudio\r\nFormat                                   : AAC\r\nBit rate                                 : 32.0 Kbps\r\nChannel(s)                               : 2 channels \r\nChannel positions                        : Front: L R \r\nSampling rate                            : 48.0 KHz \r\nStream size                              : 19.0 MiB (6%)\r\nLanguage                                 : English\r\n\r\nSubtitle                                 : English (for non-English parts only)\r\n\r\nScreen Shots: (Click  to view)\r\n \nhttp://ititli.com/aX \nhttp://ititli.com/aq \nhttp://ititli.com/ar \nhttp://ititli.com/a1 \nhttp://ititli.com/aT \nhttp://ititli.com/aW \nhttp://ititli.com/ag \nhttp://ititli.com/an \nhttp://ititli.com/aw\r\n\r\n----------------------------------------------------------------------------------------------------\r\n\r\n\r\nEncoder Notes: Looking For Early Access To Anything You Can Provide WEBDL, DVDScr, DVDR, BluRay,\r\nDirect Audio, Music Releases and Seedboxes. If You Got anything to offer please contact us.\r\n\r\nSupport us by donating BC - 1FgwdzPsd1y25Gea8wP1qni35uGCtmkRCD\r\n\r\nSend some love!\r\nFind us and join us!\r\n\r\nTry all new image sharing/hosting service at:        \nhttp://ititli.com/","torrent":{"xt":"urn:btih:2f8f7a20d26564ad7a3ba7e50b8e163cb1bad27b","amp;dn":"Diablo.2016.WEBRip.480p.x264.AAC-VYTO+%5BP2PDL%5D","amp;tr":["udp%3A%2F%2Ftracker.leechers-paradise.org%3A6969","udp%3A%2F%2Fzer0day.ch%3A1337","udp%3A%2F%2Fopen.demonii.com%3A1337","udp%3A%2F%2Ftracker.coppersurfer.tk%3A6969","udp%3A%2F%2Fexodus.desync.com%3A6969"],"infoHash":"2f8f7a20d26564ad7a3ba7e50b8e163cb1bad27b","infoHashBuffer":{"type":"Buffer","data":[47,143,122,32,210,101,100,173,122,59,167,229,11,142,22,60,177,186,210,123]},"announce":[],"urlList":[]}}